{"title":"One &amp; Two.2015.WEBRiP.XViD.AC3.5.1.ReLeNTLesS","uid":12240804,"size":1199166478,"categoryP":"video","categoryS":"movies","magnet":"?xt=urn:btih:a234b3827123e798891c813b3d733c34a00ee7dd&amp;dn=One+%26amp%3B+Two.2015.WEBRiP.XViD.AC3.5.1.ReLeNTLesS&amp;tr=udp%3A%2F%2Ftracker.openbittorrent.com%3A80&amp;tr=udp%3A%2F%2Fopen.demonii.com%3A1337&amp;tr=udp%3A%2F%2Ftracker.coppersurfer.tk%3A6969&amp;tr=udp%3A%2F%2Fexodus.desync.com%3A6969","seeders":0,"leechers":0,"uploader":"TvTeam","files":4,"time":1439796741,"description":"------------------------------------------------------------------------\n\n &lt;a href=&quot; https://www.torrenting.com&quot; rel=&quot;nofollow&quot; target=&quot;_NEW&quot;&gt; https://www.torrenting.com&lt;/a&gt;\n\nSign up is OPEN - for time being. Come and have fun\n\n.......................................................................................................................P0STER\n[img]http://i.imgur.com/83cBM2R.png[/img]\n\niMDB: http://www.imdb.com/title/tt3975510/\n\nGeneral\nComplete name               : One &amp; Two.2015.WEBRiP.XViD.AC3.5.1.ReLeNTLesS.avi\nFormat                      : AVI\nFormat/Info                 : Audio Video Interleave\nFile size                   : 1.09 GiB\nDuration                    : 1h 30mn\nOverall bit rate            : 1 728 Kbps\n\nVideo\nID                          : 0\nFormat                      : MPEG-4 Visual\nFormat profile              : Advanced Simple@L5\nFormat settings, BVOP       : 1\nFormat settings, QPel       : No\nFormat settings, GMC        : No warppoints\nFormat settings, Matrix     : Default (H.263)\nMuxing mode                 : Packed bitstream\nCodec ID                    : XVID\nCodec ID/Hint               : XviD\nDuration                    : 1h 30mn\nBit rate                    : 1 528 Kbps\nWidth                       : 720 pixels\nHeight                      : 304 pixels\nDisplay aspect ratio        : 2.35:1\nFrame rate                  : 23.976 fps\nColor space                 : YUV\nChroma subsampling          : 4:2:0\nBit depth                   : 8 bits\nScan type                   : Progressive\nCompression mode            : Lossy\nBits/(Pixel*Frame)          : 0.291\nStream size                 : 991 MiB (88%)\nWriting library             : XviD 1.2.1 (UTC 2008-12-04)\n\nAudio\nID                          : 1\nFormat                      : AC-3\nFormat/Info                 : Audio Coding 3\nMode extension              : CM (complete main)\nFormat settings, Endianness : Big\nCodec ID                    : 2000\nDuration                    : 1h 30mn\nBit rate mode               : Constant\nBit rate                    : 192 Kbps\nChannel(s)                  : 6 channels\nChannel positions           : Front: L C R, Side: L R, LFE\nSampling rate               : 48.0 KHz\nCompression mode            : Lossy\nStream size                 : 125 MiB (11%)\nAlignment                   : Aligned on interleaves\nInterleave, duration        : 64 ms (1.53 video frames)\nInterleave, preload duratio : 192 ms\nTitle                       : One &amp; Two.2015.ReLeNTLesS.audio.AC3.5.1.English_new\nSample Included             : Yes\nSource                      : ETRG 720 Thanks \n\nPL0T\nTwo siblings discover a supernatural escape from a troubled home, but find their bond tested when reality threatens to tear their family apart.\n\nCAST\nDirector: Andrew Droz Palermo\nWriters: Andrew Droz Palermo, Neima Shahdadi\nStars: Kiernan Shipka, Timothe Chalamet, Elizabeth Reaser\n\nSCREENS\n[img]http://i.imgur.com/lVEk8UG.png[/img]\n[img]http://i.imgur.com/uWAkrZ5.png[/img]\n[img]http://i.imgur.com/QdpMGuh.png[/img]\n[img]http://i.imgur.com/GQhF9wI.png[/img]\n[img]http://i.imgur.com/SGo7Icm.png[/img]\n[img]http://i.imgur.com/4SkuWAw.png[/img]\n\nTRAiLER\n\nGREETZ\n\n\nHIVE-CM8, Blackjesus, M0RPH, M00SE, MiLLENiUM,\n\nMANiX, TiTAN, Anonymous, TuX, \n\nACAB, KingStoner, FooKas, 4PlayHD, \n\nGodFather, Cld.... \n\nKeep up the good work guyz","torrent":{"xt":"urn:btih:a234b3827123e798891c813b3d733c34a00ee7dd","amp;dn":"One+%26amp%3B+Two.2015.WEBRiP.XViD.AC3.5.1.ReLeNTLesS","amp;tr":["udp%3A%2F%2Ftracker.openbittorrent.com%3A80","udp%3A%2F%2Fopen.demonii.com%3A1337","udp%3A%2F%2Ftracker.coppersurfer.tk%3A6969","udp%3A%2F%2Fexodus.desync.com%3A6969"],"infoHash":"a234b3827123e798891c813b3d733c34a00ee7dd","infoHashBuffer":{"type":"Buffer","data":[162,52,179,130,113,35,231,152,137,28,129,59,61,115,60,52,160,14,231,221]},"announce":[],"urlList":[]}}